<svg width="1920" height="772" viewBox="0 0 1920 772" fill="none" xmlns="http://www.w3.org/2000/svg">
<rect width="1920" height="772" fill="#F5F7FA"/>
<path d="M275.43 402.5V370.101H296.185V375.021H281.299V383.817H294.761V388.737H281.299V402.5H275.43ZM310.095 402.975C307.722 402.975 305.665 402.453 303.925 401.408C302.185 400.364 300.835 398.904 299.875 397.026C298.926 395.149 298.451 392.955 298.451 390.445C298.451 387.935 298.926 385.736 299.875 383.849C300.835 381.961 302.185 380.495 303.925 379.451C305.665 378.407 307.722 377.884 310.095 377.884C312.468 377.884 314.524 378.407 316.264 379.451C318.005 380.495 319.349 381.961 320.298 383.849C321.258 385.736 321.738 387.935 321.738 390.445C321.738 392.955 321.258 395.149 320.298 397.026C319.349 398.904 318.005 400.364 316.264 401.408C314.524 402.453 312.468 402.975 310.095 402.975ZM310.126 398.387C311.413 398.387 312.489 398.034 313.354 397.327C314.218 396.61 314.862 395.65 315.284 394.448C315.716 393.245 315.932 391.906 315.932 390.43C315.932 388.942 315.716 387.598 315.284 386.395C314.862 385.183 314.218 384.218 313.354 383.5C312.489 382.783 311.413 382.425 310.126 382.425C308.808 382.425 307.711 382.783 306.836 383.5C305.971 384.218 305.322 385.183 304.89 386.395C304.468 387.598 304.257 388.942 304.257 390.43C304.257 391.906 304.468 393.245 304.89 394.448C305.322 395.65 305.971 396.61 306.836 397.327C307.711 398.034 308.808 398.387 310.126 398.387ZM326.599 402.5V378.201H332.151V382.251H332.404C332.847 380.848 333.607 379.767 334.683 379.008C335.769 378.238 337.008 377.853 338.4 377.853C338.717 377.853 339.07 377.869 339.46 377.9C339.861 377.921 340.193 377.958 340.457 378.011V383.279C340.214 383.195 339.829 383.121 339.302 383.058C338.785 382.984 338.284 382.947 337.799 382.947C336.755 382.947 335.816 383.174 334.983 383.627C334.16 384.07 333.512 384.687 333.037 385.478C332.563 386.269 332.325 387.181 332.325 388.215V402.5H326.599ZM344.261 402.5V378.201H349.735V382.33H350.02C350.526 380.938 351.364 379.851 352.535 379.071C353.706 378.28 355.103 377.884 356.727 377.884C358.373 377.884 359.759 378.285 360.888 379.087C362.027 379.878 362.829 380.959 363.293 382.33H363.546C364.084 380.98 364.991 379.904 366.267 379.103C367.553 378.29 369.077 377.884 370.839 377.884C373.074 377.884 374.899 378.591 376.312 380.004C377.725 381.418 378.432 383.479 378.432 386.19V402.5H372.689V387.076C372.689 385.568 372.289 384.465 371.487 383.769C370.686 383.063 369.705 382.709 368.545 382.709C367.163 382.709 366.082 383.142 365.302 384.007C364.532 384.861 364.147 385.974 364.147 387.345V402.5H358.531V386.838C358.531 385.583 358.151 384.581 357.392 383.833C356.643 383.084 355.662 382.709 354.449 382.709C353.627 382.709 352.878 382.92 352.203 383.342C351.528 383.754 350.99 384.339 350.589 385.098C350.189 385.847 349.988 386.722 349.988 387.724V402.5H344.261ZM399.729 392.28V378.201H405.456V402.5H399.903V398.181H399.65C399.102 399.542 398.2 400.654 396.945 401.519C395.701 402.384 394.166 402.816 392.342 402.816C390.749 402.816 389.341 402.463 388.118 401.756C386.905 401.039 385.956 400 385.27 398.64C384.585 397.269 384.242 395.613 384.242 393.673V378.201H389.969V392.787C389.969 394.326 390.39 395.55 391.234 396.457C392.078 397.364 393.185 397.817 394.556 397.817C395.4 397.817 396.217 397.612 397.008 397.2C397.799 396.789 398.448 396.177 398.954 395.365C399.471 394.543 399.729 393.514 399.729 392.28ZM417.072 370.101V402.5H411.345V370.101H417.072ZM429.953 402.99C428.413 402.99 427.026 402.716 425.792 402.168C424.569 401.609 423.599 400.786 422.882 399.7C422.175 398.614 421.822 397.274 421.822 395.682C421.822 394.311 422.075 393.177 422.581 392.28C423.087 391.384 423.778 390.667 424.653 390.129C425.529 389.591 426.515 389.185 427.612 388.911C428.719 388.626 429.863 388.42 431.045 388.294C432.468 388.146 433.623 388.014 434.509 387.898C435.395 387.772 436.038 387.582 436.439 387.329C436.85 387.065 437.056 386.659 437.056 386.111V386.016C437.056 384.824 436.703 383.901 435.996 383.247C435.29 382.593 434.272 382.267 432.943 382.267C431.54 382.267 430.428 382.572 429.605 383.184C428.793 383.796 428.245 384.518 427.96 385.351L422.613 384.592C423.035 383.116 423.731 381.882 424.701 380.89C425.671 379.888 426.858 379.139 428.26 378.644C429.663 378.138 431.213 377.884 432.911 377.884C434.082 377.884 435.247 378.022 436.408 378.296C437.568 378.57 438.628 379.023 439.587 379.656C440.547 380.279 441.317 381.128 441.897 382.203C442.488 383.279 442.783 384.624 442.783 386.237V402.5H437.278V399.162H437.088C436.74 399.837 436.249 400.47 435.617 401.06C434.994 401.64 434.209 402.11 433.259 402.468C432.321 402.816 431.219 402.99 429.953 402.99ZM431.44 398.782C432.59 398.782 433.586 398.556 434.43 398.102C435.274 397.638 435.922 397.026 436.376 396.267C436.84 395.508 437.072 394.68 437.072 393.783V390.92C436.893 391.068 436.587 391.205 436.154 391.331C435.733 391.458 435.258 391.569 434.731 391.663C434.203 391.758 433.681 391.843 433.164 391.917C432.648 391.99 432.199 392.054 431.82 392.106C430.966 392.222 430.201 392.412 429.526 392.676C428.851 392.94 428.318 393.309 427.928 393.783C427.538 394.247 427.343 394.849 427.343 395.587C427.343 396.641 427.728 397.438 428.498 397.976C429.268 398.513 430.248 398.782 431.44 398.782ZM430.966 375.005L434.509 367.776H440.109L435.253 375.005H430.966ZM448.541 402.5V378.201H454.094V382.251H454.347C454.79 380.848 455.549 379.767 456.625 379.008C457.711 378.238 458.951 377.853 460.343 377.853C460.659 377.853 461.013 377.869 461.403 377.9C461.804 377.921 462.136 377.958 462.399 378.011V383.279C462.157 383.195 461.772 383.121 461.245 383.058C460.728 382.984 460.227 382.947 459.742 382.947C458.698 382.947 457.759 383.174 456.926 383.627C456.103 384.07 455.455 384.687 454.98 385.478C454.505 386.269 454.268 387.181 454.268 388.215V402.5H448.541ZM466.204 402.5V378.201H471.931V402.5H466.204ZM469.083 374.752C468.176 374.752 467.396 374.452 466.742 373.85C466.088 373.239 465.761 372.506 465.761 371.651C465.761 370.787 466.088 370.054 466.742 369.453C467.396 368.841 468.176 368.535 469.083 368.535C470.001 368.535 470.781 368.841 471.425 369.453C472.078 370.054 472.405 370.787 472.405 371.651C472.405 372.506 472.078 373.239 471.425 373.85C470.781 374.452 470.001 374.752 469.083 374.752ZM488.419 402.975C486.046 402.975 483.989 402.453 482.249 401.408C480.509 400.364 479.159 398.904 478.199 397.026C477.25 395.149 476.776 392.955 476.776 390.445C476.776 387.935 477.25 385.736 478.199 383.849C479.159 381.961 480.509 380.495 482.249 379.451C483.989 378.407 486.046 377.884 488.419 377.884C490.792 377.884 492.848 378.407 494.589 379.451C496.329 380.495 497.674 381.961 498.623 383.849C499.582 385.736 500.062 387.935 500.062 390.445C500.062 392.955 499.582 395.149 498.623 397.026C497.674 398.904 496.329 400.364 494.589 401.408C492.848 402.453 490.792 402.975 488.419 402.975ZM488.451 398.387C489.737 398.387 490.813 398.034 491.678 397.327C492.543 396.61 493.186 395.65 493.608 394.448C494.04 393.245 494.256 391.906 494.256 390.43C494.256 388.942 494.04 387.598 493.608 386.395C493.186 385.183 492.543 384.218 491.678 383.5C490.813 382.783 489.737 382.425 488.451 382.425C487.132 382.425 486.035 382.783 485.16 383.5C484.295 384.218 483.647 385.183 483.214 386.395C482.792 387.598 482.581 388.942 482.581 390.43C482.581 391.906 482.792 393.245 483.214 394.448C483.647 395.65 484.295 396.61 485.16 397.327C486.035 398.034 487.132 398.387 488.451 398.387ZM524.99 402.927C523.081 402.927 521.373 402.437 519.865 401.456C518.357 400.475 517.165 399.051 516.289 397.185C515.414 395.318 514.976 393.05 514.976 390.382C514.976 387.682 515.419 385.404 516.305 383.548C517.202 381.681 518.409 380.273 519.928 379.324C521.447 378.364 523.139 377.884 525.006 377.884C526.43 377.884 527.601 378.127 528.518 378.612C529.436 379.087 530.163 379.662 530.701 380.337C531.239 381.001 531.656 381.628 531.951 382.219H532.188V370.101H537.931V402.5H532.299V398.672H531.951C531.656 399.262 531.229 399.89 530.67 400.554C530.111 401.208 529.372 401.767 528.455 402.231C527.537 402.695 526.382 402.927 524.99 402.927ZM526.588 398.229C527.801 398.229 528.834 397.902 529.689 397.248C530.543 396.583 531.192 395.661 531.635 394.479C532.078 393.298 532.299 391.922 532.299 390.35C532.299 388.779 532.078 387.413 531.635 386.253C531.202 385.093 530.559 384.191 529.705 383.548C528.861 382.905 527.822 382.583 526.588 382.583C525.312 382.583 524.247 382.915 523.392 383.58C522.538 384.244 521.895 385.162 521.462 386.332C521.03 387.503 520.814 388.842 520.814 390.35C520.814 391.869 521.03 393.224 521.462 394.416C521.905 395.597 522.554 396.531 523.408 397.216C524.273 397.891 525.333 398.229 526.588 398.229ZM554.791 402.975C552.355 402.975 550.25 402.468 548.479 401.456C546.717 400.433 545.362 398.988 544.413 397.121C543.464 395.244 542.989 393.035 542.989 390.493C542.989 387.993 543.464 385.8 544.413 383.912C545.373 382.013 546.712 380.537 548.431 379.482C550.15 378.417 552.17 377.884 554.49 377.884C555.988 377.884 557.401 378.127 558.73 378.612C560.069 379.087 561.251 379.825 562.274 380.827C563.307 381.829 564.119 383.105 564.71 384.655C565.3 386.195 565.596 388.03 565.596 390.161V391.917H545.679V388.057H560.106C560.096 386.96 559.858 385.984 559.394 385.13C558.93 384.265 558.282 383.585 557.448 383.089C556.626 382.593 555.666 382.346 554.569 382.346C553.399 382.346 552.37 382.63 551.484 383.2C550.599 383.759 549.908 384.497 549.412 385.415C548.927 386.322 548.679 387.318 548.669 388.405V391.774C548.669 393.187 548.927 394.4 549.444 395.413C549.96 396.415 550.683 397.185 551.611 397.722C552.539 398.25 553.625 398.513 554.87 398.513C555.703 398.513 556.457 398.397 557.132 398.165C557.807 397.923 558.392 397.57 558.888 397.105C559.384 396.641 559.758 396.067 560.011 395.381L565.358 395.982C565.021 397.395 564.378 398.629 563.428 399.684C562.49 400.728 561.287 401.54 559.821 402.12C558.355 402.69 556.679 402.975 554.791 402.975ZM609.476 381.033H603.559C603.39 380.062 603.079 379.203 602.626 378.454C602.172 377.695 601.608 377.051 600.933 376.524C600.258 375.997 599.488 375.601 598.623 375.337C597.769 375.063 596.846 374.926 595.855 374.926C594.094 374.926 592.533 375.369 591.172 376.255C589.812 377.13 588.747 378.417 587.977 380.115C587.207 381.802 586.822 383.864 586.822 386.301C586.822 388.779 587.207 390.867 587.977 392.565C588.757 394.253 589.822 395.529 591.172 396.394C592.533 397.248 594.088 397.675 595.839 397.675C596.809 397.675 597.716 397.548 598.56 397.295C599.414 397.032 600.179 396.647 600.854 396.14C601.539 395.634 602.114 395.012 602.578 394.274C603.053 393.535 603.38 392.692 603.559 391.743L609.476 391.774C609.254 393.314 608.774 394.759 608.036 396.109C607.308 397.459 606.354 398.651 605.173 399.684C603.992 400.707 602.61 401.509 601.028 402.089C599.446 402.658 597.69 402.943 595.76 402.943C592.912 402.943 590.371 402.284 588.135 400.965C585.899 399.647 584.138 397.744 582.851 395.255C581.564 392.766 580.921 389.781 580.921 386.301C580.921 382.81 581.57 379.825 582.867 377.347C584.164 374.858 585.931 372.954 588.167 371.636C590.402 370.317 592.934 369.658 595.76 369.658C597.563 369.658 599.24 369.911 600.791 370.418C602.341 370.924 603.723 371.667 604.935 372.648C606.148 373.618 607.145 374.81 607.925 376.223C608.716 377.626 609.233 379.229 609.476 381.033ZM625.197 402.975C622.824 402.975 620.767 402.453 619.027 401.408C617.287 400.364 615.937 398.904 614.977 397.026C614.028 395.149 613.553 392.955 613.553 390.445C613.553 387.935 614.028 385.736 614.977 383.849C615.937 381.961 617.287 380.495 619.027 379.451C620.767 378.407 622.824 377.884 625.197 377.884C627.57 377.884 629.626 378.407 631.366 379.451C633.106 380.495 634.451 381.961 635.4 383.849C636.36 385.736 636.84 387.935 636.84 390.445C636.84 392.955 636.36 395.149 635.4 397.026C634.451 398.904 633.106 400.364 631.366 401.408C629.626 402.453 627.57 402.975 625.197 402.975ZM625.228 398.387C626.515 398.387 627.591 398.034 628.455 397.327C629.32 396.61 629.964 395.65 630.385 394.448C630.818 393.245 631.034 391.906 631.034 390.43C631.034 388.942 630.818 387.598 630.385 386.395C629.964 385.183 629.32 384.218 628.455 383.5C627.591 382.783 626.515 382.425 625.228 382.425C623.91 382.425 622.813 382.783 621.938 383.5C621.073 384.218 620.424 385.183 619.992 386.395C619.57 387.598 619.359 388.942 619.359 390.43C619.359 391.906 619.57 393.245 619.992 394.448C620.424 395.65 621.073 396.61 621.938 397.327C622.813 398.034 623.91 398.387 625.228 398.387ZM647.427 388.262V402.5H641.701V378.201H647.174V382.33H647.459C648.018 380.969 648.909 379.888 650.132 379.087C651.366 378.285 652.89 377.884 654.704 377.884C656.381 377.884 657.842 378.243 659.086 378.96C660.342 379.677 661.312 380.716 661.997 382.077C662.693 383.437 663.036 385.088 663.026 387.028V402.5H657.299V387.914C657.299 386.29 656.877 385.019 656.033 384.102C655.2 383.184 654.045 382.725 652.569 382.725C651.567 382.725 650.676 382.947 649.895 383.39C649.125 383.822 648.519 384.45 648.076 385.272C647.644 386.095 647.427 387.092 647.427 388.262ZM680.981 378.201V382.63H667.012V378.201H680.981ZM670.461 372.379H676.188V395.191C676.188 395.961 676.304 396.552 676.536 396.963C676.778 397.364 677.095 397.638 677.485 397.786C677.875 397.933 678.308 398.007 678.782 398.007C679.141 398.007 679.468 397.981 679.763 397.928C680.069 397.875 680.301 397.828 680.459 397.786L681.424 402.263C681.118 402.368 680.68 402.484 680.111 402.611C679.552 402.737 678.866 402.811 678.054 402.832C676.62 402.874 675.328 402.658 674.179 402.184C673.029 401.698 672.117 400.95 671.442 399.937C670.777 398.925 670.45 397.659 670.461 396.14V372.379ZM692.763 402.99C691.223 402.99 689.836 402.716 688.602 402.168C687.379 401.609 686.409 400.786 685.691 399.7C684.985 398.614 684.631 397.274 684.631 395.682C684.631 394.311 684.885 393.177 685.391 392.28C685.897 391.384 686.588 390.667 687.463 390.129C688.339 389.591 689.325 389.185 690.421 388.911C691.529 388.626 692.673 388.42 693.854 388.294C695.278 388.146 696.433 388.014 697.319 387.898C698.205 387.772 698.848 387.582 699.249 387.329C699.66 387.065 699.866 386.659 699.866 386.111V386.016C699.866 384.824 699.513 383.901 698.806 383.247C698.099 382.593 697.082 382.267 695.753 382.267C694.35 382.267 693.237 382.572 692.415 383.184C691.603 383.796 691.054 384.518 690.77 385.351L685.422 384.592C685.844 383.116 686.54 381.882 687.511 380.89C688.481 379.888 689.667 379.139 691.07 378.644C692.473 378.138 694.023 377.884 695.721 377.884C696.892 377.884 698.057 378.022 699.217 378.296C700.377 378.57 701.437 379.023 702.397 379.656C703.357 380.279 704.127 381.128 704.707 382.203C705.297 383.279 705.593 384.624 705.593 386.237V402.5H700.087V399.162H699.898C699.549 399.837 699.059 400.47 698.426 401.06C697.804 401.64 697.018 402.11 696.069 402.468C695.131 402.816 694.028 402.99 692.763 402.99ZM694.25 398.782C695.399 398.782 696.396 398.556 697.24 398.102C698.084 397.638 698.732 397.026 699.186 396.267C699.65 395.508 699.882 394.68 699.882 393.783V390.92C699.702 391.068 699.397 391.205 698.964 391.331C698.542 391.458 698.068 391.569 697.54 391.663C697.013 391.758 696.491 391.843 695.974 391.917C695.457 391.99 695.009 392.054 694.63 392.106C693.775 392.222 693.011 392.412 692.336 392.676C691.661 392.94 691.128 393.309 690.738 393.783C690.348 394.247 690.153 394.849 690.153 395.587C690.153 396.641 690.538 397.438 691.307 397.976C692.077 398.513 693.058 398.782 694.25 398.782ZM723.485 378.201V382.63H709.516V378.201H723.485ZM712.965 372.379H718.691V395.191C718.691 395.961 718.807 396.552 719.039 396.963C719.282 397.364 719.598 397.638 719.989 397.786C720.379 397.933 720.811 398.007 721.286 398.007C721.644 398.007 721.971 397.981 722.267 397.928C722.572 397.875 722.805 397.828 722.963 397.786L723.928 402.263C723.622 402.368 723.184 402.484 722.615 402.611C722.056 402.737 721.37 402.811 720.558 402.832C719.124 402.874 717.832 402.658 716.682 402.184C715.533 401.698 714.62 400.95 713.945 399.937C713.281 398.925 712.954 397.659 712.965 396.14V372.379ZM738.612 402.975C736.239 402.975 734.183 402.453 732.443 401.408C730.703 400.364 729.353 398.904 728.393 397.026C727.444 395.149 726.969 392.955 726.969 390.445C726.969 387.935 727.444 385.736 728.393 383.849C729.353 381.961 730.703 380.495 732.443 379.451C734.183 378.407 736.239 377.884 738.612 377.884C740.985 377.884 743.042 378.407 744.782 379.451C746.522 380.495 747.867 381.961 748.816 383.849C749.776 385.736 750.256 387.935 750.256 390.445C750.256 392.955 749.776 395.149 748.816 397.026C747.867 398.904 746.522 400.364 744.782 401.408C743.042 402.453 740.985 402.975 738.612 402.975ZM738.644 398.387C739.931 398.387 741.006 398.034 741.871 397.327C742.736 396.61 743.379 395.65 743.801 394.448C744.234 393.245 744.45 391.906 744.45 390.43C744.45 388.942 744.234 387.598 743.801 386.395C743.379 385.183 742.736 384.218 741.871 383.5C741.006 382.783 739.931 382.425 738.644 382.425C737.326 382.425 736.229 382.783 735.354 383.5C734.489 384.218 733.84 385.183 733.408 386.395C732.986 387.598 732.775 388.942 732.775 390.43C732.775 391.906 732.986 393.245 733.408 394.448C733.84 395.65 734.489 396.61 735.354 397.327C736.229 398.034 737.326 398.387 738.644 398.387Z" fill="#4D4D4D"/>
<path d="M794.152 381.033H788.235C788.066 380.062 787.755 379.203 787.302 378.454C786.848 377.695 786.284 377.051 785.609 376.524C784.934 375.997 784.164 375.601 783.299 375.337C782.445 375.063 781.522 374.926 780.531 374.926C778.77 374.926 777.209 375.369 775.848 376.255C774.488 377.13 773.423 378.417 772.653 380.115C771.883 381.802 771.498 383.864 771.498 386.301C771.498 388.779 771.883 390.867 772.653 392.565C773.433 394.253 774.498 395.529 775.848 396.394C777.209 397.248 778.764 397.675 780.515 397.675C781.485 397.675 782.392 397.548 783.236 397.295C784.09 397.032 784.855 396.647 785.53 396.14C786.215 395.634 786.79 395.012 787.254 394.274C787.729 393.535 788.056 392.692 788.235 391.743L794.152 391.774C793.93 393.314 793.45 394.759 792.712 396.109C791.984 397.459 791.03 398.651 789.849 399.684C788.667 400.707 787.286 401.509 785.704 402.089C784.122 402.658 782.366 402.943 780.436 402.943C777.588 402.943 775.047 402.284 772.811 400.965C770.575 399.647 768.814 397.744 767.527 395.255C766.24 392.766 765.597 389.781 765.597 386.301C765.597 382.81 766.246 379.825 767.543 377.347C768.84 374.858 770.607 372.954 772.842 371.636C775.078 370.317 777.609 369.658 780.436 369.658C782.239 369.658 783.916 369.911 785.467 370.418C787.017 370.924 788.399 371.667 789.611 372.648C790.824 373.618 791.821 374.81 792.601 376.223C793.392 377.626 793.909 379.229 794.152 381.033ZM809.873 402.975C807.5 402.975 805.443 402.453 803.703 401.408C801.963 400.364 800.613 398.904 799.653 397.026C798.704 395.149 798.229 392.955 798.229 390.445C798.229 387.935 798.704 385.736 799.653 383.849C800.613 381.961 801.963 380.495 803.703 379.451C805.443 378.407 807.5 377.884 809.873 377.884C812.245 377.884 814.302 378.407 816.042 379.451C817.782 380.495 819.127 381.961 820.076 383.849C821.036 385.736 821.516 387.935 821.516 390.445C821.516 392.955 821.036 395.149 820.076 397.026C819.127 398.904 817.782 400.364 816.042 401.408C814.302 402.453 812.245 402.975 809.873 402.975ZM809.904 398.387C811.191 398.387 812.267 398.034 813.131 397.327C813.996 396.61 814.64 395.65 815.061 394.448C815.494 393.245 815.71 391.906 815.71 390.43C815.71 388.942 815.494 387.598 815.061 386.395C814.64 385.183 813.996 384.218 813.131 383.5C812.267 382.783 811.191 382.425 809.904 382.425C808.586 382.425 807.489 382.783 806.614 383.5C805.749 384.218 805.1 385.183 804.668 386.395C804.246 387.598 804.035 388.942 804.035 390.43C804.035 391.906 804.246 393.245 804.668 394.448C805.1 395.65 805.749 396.61 806.614 397.327C807.489 398.034 808.586 398.387 809.904 398.387ZM826.376 402.5V378.201H831.85V382.33H832.135C832.641 380.938 833.48 379.851 834.65 379.071C835.821 378.28 837.218 377.884 838.842 377.884C840.488 377.884 841.875 378.285 843.003 379.087C844.142 379.878 844.944 380.959 845.408 382.33H845.661C846.199 380.98 847.106 379.904 848.382 379.103C849.668 378.29 851.192 377.884 852.954 377.884C855.19 377.884 857.014 378.591 858.427 380.004C859.841 381.418 860.547 383.479 860.547 386.19V402.5H854.805V387.076C854.805 385.568 854.404 384.465 853.602 383.769C852.801 383.063 851.82 382.709 850.66 382.709C849.278 382.709 848.197 383.142 847.417 384.007C846.647 384.861 846.262 385.974 846.262 387.345V402.5H840.646V386.838C840.646 385.583 840.266 384.581 839.507 383.833C838.758 383.084 837.777 382.709 836.564 382.709C835.742 382.709 834.993 382.92 834.318 383.342C833.643 383.754 833.105 384.339 832.704 385.098C832.304 385.847 832.103 386.722 832.103 387.724V402.5H826.376ZM881.845 392.28V378.201H887.571V402.5H882.019V398.181H881.765C881.217 399.542 880.315 400.654 879.06 401.519C877.816 402.384 876.281 402.816 874.457 402.816C872.864 402.816 871.456 402.463 870.233 401.756C869.02 401.039 868.071 400 867.385 398.64C866.7 397.269 866.357 395.613 866.357 393.673V378.201H872.084V392.787C872.084 394.326 872.506 395.55 873.349 396.457C874.193 397.364 875.3 397.817 876.671 397.817C877.515 397.817 878.333 397.612 879.124 397.2C879.915 396.789 880.563 396.177 881.069 395.365C881.586 394.543 881.845 393.514 881.845 392.28ZM899.187 388.262V402.5H893.46V378.201H898.934V382.33H899.219C899.778 380.969 900.669 379.888 901.892 379.087C903.126 378.285 904.65 377.884 906.464 377.884C908.141 377.884 909.602 378.243 910.846 378.96C912.101 379.677 913.071 380.716 913.757 382.077C914.453 383.437 914.796 385.088 914.785 387.028V402.5H909.058V387.914C909.058 386.29 908.637 385.019 907.793 384.102C906.96 383.184 905.805 382.725 904.328 382.725C903.326 382.725 902.435 382.947 901.655 383.39C900.885 383.822 900.278 384.45 899.836 385.272C899.403 386.095 899.187 387.092 899.187 388.262ZM920.607 402.5V378.201H926.334V402.5H920.607ZM923.486 374.752C922.579 374.752 921.799 374.452 921.145 373.85C920.491 373.239 920.164 372.506 920.164 371.651C920.164 370.787 920.491 370.054 921.145 369.453C921.799 368.841 922.579 368.535 923.486 368.535C924.404 368.535 925.184 368.841 925.827 369.453C926.481 370.054 926.808 370.787 926.808 371.651C926.808 372.506 926.481 373.239 925.827 373.85C925.184 374.452 924.404 374.752 923.486 374.752ZM944.356 378.201V382.63H930.387V378.201H944.356ZM933.836 372.379H939.563V395.191C939.563 395.961 939.679 396.552 939.911 396.963C940.154 397.364 940.47 397.638 940.86 397.786C941.25 397.933 941.683 398.007 942.157 398.007C942.516 398.007 942.843 397.981 943.138 397.928C943.444 397.875 943.676 397.828 943.834 397.786L944.799 402.263C944.493 402.368 944.056 402.484 943.486 402.611C942.927 402.737 942.242 402.811 941.43 402.832C939.995 402.874 938.703 402.658 937.554 402.184C936.404 401.698 935.492 400.95 934.817 399.937C934.153 398.925 933.826 397.659 933.836 396.14V372.379ZM959.642 402.975C957.206 402.975 955.102 402.468 953.33 401.456C951.569 400.433 950.214 398.988 949.264 397.121C948.315 395.244 947.841 393.035 947.841 390.493C947.841 387.993 948.315 385.8 949.264 383.912C950.224 382.013 951.564 380.537 953.283 379.482C955.002 378.417 957.021 377.884 959.342 377.884C960.839 377.884 962.252 378.127 963.581 378.612C964.921 379.087 966.102 379.825 967.125 380.827C968.158 381.829 968.971 383.105 969.561 384.655C970.152 386.195 970.447 388.03 970.447 390.161V391.917H950.53V388.057H964.958C964.947 386.96 964.71 385.984 964.246 385.13C963.782 384.265 963.133 383.585 962.3 383.089C961.477 382.593 960.518 382.346 959.421 382.346C958.25 382.346 957.222 382.63 956.336 383.2C955.45 383.759 954.759 384.497 954.263 385.415C953.778 386.322 953.53 387.318 953.52 388.405V391.774C953.52 393.187 953.778 394.4 954.295 395.413C954.812 396.415 955.534 397.185 956.462 397.722C957.39 398.25 958.477 398.513 959.721 398.513C960.554 398.513 961.309 398.397 961.983 398.165C962.658 397.923 963.244 397.57 963.739 397.105C964.235 396.641 964.61 396.067 964.863 395.381L970.21 395.982C969.872 397.395 969.229 398.629 968.28 399.684C967.341 400.728 966.139 401.54 964.673 402.12C963.207 402.69 961.53 402.975 959.642 402.975ZM985.891 402.975C983.465 402.975 981.382 402.442 979.642 401.377C977.913 400.312 976.579 398.84 975.64 396.963C974.712 395.075 974.248 392.903 974.248 390.445C974.248 387.977 974.722 385.8 975.672 383.912C976.621 382.013 977.96 380.537 979.69 379.482C981.43 378.417 983.486 377.884 985.859 377.884C987.832 377.884 989.577 378.248 991.096 378.976C992.625 379.693 993.843 380.711 994.75 382.029C995.657 383.337 996.174 384.866 996.3 386.617H990.827C990.605 385.446 990.078 384.471 989.245 383.69C988.422 382.899 987.32 382.504 985.939 382.504C984.768 382.504 983.74 382.82 982.854 383.453C981.968 384.075 981.277 384.972 980.781 386.142C980.296 387.313 980.054 388.716 980.054 390.35C980.054 392.006 980.296 393.43 980.781 394.622C981.266 395.803 981.947 396.715 982.822 397.359C983.708 397.991 984.747 398.308 985.939 398.308C986.782 398.308 987.536 398.15 988.201 397.833C988.876 397.506 989.44 397.037 989.893 396.425C990.347 395.814 990.658 395.07 990.827 394.195H996.3C996.163 395.914 995.657 397.438 994.782 398.767C993.906 400.085 992.715 401.118 991.207 401.867C989.698 402.605 987.927 402.975 985.891 402.975ZM1006.73 388.262V402.5H1001V370.101H1006.6V382.33H1006.89C1007.46 380.959 1008.34 379.878 1009.53 379.087C1010.73 378.285 1012.26 377.884 1014.12 377.884C1015.8 377.884 1017.28 378.238 1018.53 378.944C1019.79 379.651 1020.76 380.685 1021.44 382.045C1022.14 383.406 1022.49 385.067 1022.49 387.028V402.5H1016.76V387.914C1016.76 386.279 1016.34 385.009 1015.49 384.102C1014.66 383.184 1013.49 382.725 1011.98 382.725C1010.97 382.725 1010.06 382.947 1009.26 383.39C1008.47 383.822 1007.85 384.45 1007.39 385.272C1006.95 386.095 1006.73 387.092 1006.73 388.262ZM1057.23 379.008C1057.09 377.626 1056.46 376.55 1055.37 375.78C1054.28 375.011 1052.87 374.626 1051.13 374.626C1049.9 374.626 1048.86 374.81 1047.98 375.179C1047.1 375.548 1046.43 376.049 1045.97 376.682C1045.51 377.315 1045.27 378.037 1045.26 378.849C1045.26 379.524 1045.41 380.11 1045.72 380.605C1046.03 381.101 1046.46 381.523 1047 381.871C1047.54 382.209 1048.13 382.493 1048.79 382.725C1049.44 382.957 1050.1 383.152 1050.76 383.311L1053.8 384.07C1055.02 384.355 1056.2 384.74 1057.33 385.225C1058.47 385.71 1059.49 386.322 1060.38 387.06C1061.29 387.798 1062.01 388.689 1062.53 389.733C1063.06 390.778 1063.32 392.001 1063.32 393.404C1063.32 395.302 1062.84 396.974 1061.87 398.419C1060.9 399.853 1059.5 400.976 1057.66 401.788C1055.84 402.59 1053.63 402.99 1051.03 402.99C1048.51 402.99 1046.32 402.6 1044.47 401.82C1042.62 401.039 1041.18 399.9 1040.13 398.403C1039.1 396.905 1038.54 395.081 1038.46 392.929H1044.23C1044.31 394.058 1044.66 394.996 1045.27 395.745C1045.89 396.494 1046.68 397.053 1047.66 397.422C1048.65 397.791 1049.76 397.976 1050.99 397.976C1052.26 397.976 1053.38 397.786 1054.34 397.406C1055.31 397.016 1056.07 396.478 1056.62 395.792C1057.17 395.096 1057.45 394.284 1057.46 393.356C1057.45 392.512 1057.2 391.816 1056.71 391.268C1056.23 390.709 1055.55 390.245 1054.67 389.876C1053.81 389.496 1052.79 389.159 1051.63 388.863L1047.95 387.914C1045.28 387.229 1043.17 386.19 1041.62 384.798C1040.08 383.395 1039.31 381.534 1039.31 379.213C1039.31 377.304 1039.83 375.633 1040.86 374.198C1041.9 372.764 1043.32 371.651 1045.12 370.86C1046.91 370.059 1048.94 369.658 1051.21 369.658C1053.51 369.658 1055.52 370.059 1057.25 370.86C1058.99 371.651 1060.36 372.754 1061.35 374.167C1062.34 375.569 1062.85 377.183 1062.88 379.008H1057.23ZM1074.03 388.262V402.5H1068.3V370.101H1073.9V382.33H1074.19C1074.76 380.959 1075.64 379.878 1076.83 379.087C1078.03 378.285 1079.56 377.884 1081.42 377.884C1083.11 377.884 1084.58 378.238 1085.83 378.944C1087.09 379.651 1088.06 380.685 1088.74 382.045C1089.44 383.406 1089.79 385.067 1089.79 387.028V402.5H1084.06V387.914C1084.06 386.279 1083.64 385.009 1082.8 384.102C1081.96 383.184 1080.79 382.725 1079.28 382.725C1078.27 382.725 1077.36 382.947 1076.56 383.39C1075.77 383.822 1075.15 384.45 1074.7 385.272C1074.25 386.095 1074.03 387.092 1074.03 388.262ZM1106.22 402.975C1103.85 402.975 1101.79 402.453 1100.05 401.408C1098.31 400.364 1096.96 398.904 1096 397.026C1095.06 395.149 1094.58 392.955 1094.58 390.445C1094.58 387.935 1095.06 385.736 1096 383.849C1096.96 381.961 1098.31 380.495 1100.05 379.451C1101.79 378.407 1103.85 377.884 1106.22 377.884C1108.6 377.884 1110.65 378.407 1112.39 379.451C1114.13 380.495 1115.48 381.961 1116.43 383.849C1117.39 385.736 1117.87 387.935 1117.87 390.445C1117.87 392.955 1117.39 395.149 1116.43 397.026C1115.48 398.904 1114.13 400.364 1112.39 401.408C1110.65 402.453 1108.6 402.975 1106.22 402.975ZM1106.26 398.387C1107.54 398.387 1108.62 398.034 1109.48 397.327C1110.35 396.61 1110.99 395.65 1111.41 394.448C1111.85 393.245 1112.06 391.906 1112.06 390.43C1112.06 388.942 1111.85 387.598 1111.41 386.395C1110.99 385.183 1110.35 384.218 1109.48 383.5C1108.62 382.783 1107.54 382.425 1106.26 382.425C1104.94 382.425 1103.84 382.783 1102.97 383.5C1102.1 384.218 1101.45 385.183 1101.02 386.395C1100.6 387.598 1100.39 388.942 1100.39 390.43C1100.39 391.906 1100.6 393.245 1101.02 394.448C1101.45 395.65 1102.1 396.61 1102.97 397.327C1103.84 398.034 1104.94 398.387 1106.26 398.387ZM1122.73 411.612V378.201H1128.36V382.219H1128.69C1128.99 381.628 1129.4 381.001 1129.94 380.337C1130.48 379.662 1131.21 379.087 1132.12 378.612C1133.04 378.127 1134.21 377.884 1135.64 377.884C1137.51 377.884 1139.21 378.364 1140.72 379.324C1142.23 380.273 1143.44 381.681 1144.32 383.548C1145.22 385.404 1145.67 387.682 1145.67 390.382C1145.67 393.05 1145.23 395.318 1144.35 397.185C1143.48 399.051 1142.29 400.475 1140.78 401.456C1139.27 402.437 1137.56 402.927 1135.65 402.927C1134.26 402.927 1133.11 402.695 1132.19 402.231C1131.27 401.767 1130.53 401.208 1129.97 400.554C1129.43 399.89 1129 399.262 1128.69 398.672H1128.45V411.612H1122.73ZM1128.34 390.35C1128.34 391.922 1128.57 393.298 1129.01 394.479C1129.46 395.661 1130.11 396.583 1130.95 397.248C1131.81 397.902 1132.84 398.229 1134.06 398.229C1135.32 398.229 1136.38 397.891 1137.23 397.216C1138.09 396.531 1138.73 395.597 1139.16 394.416C1139.61 393.224 1139.83 391.869 1139.83 390.35C1139.83 388.842 1139.61 387.503 1139.18 386.332C1138.75 385.162 1138.1 384.244 1137.25 383.58C1136.4 382.915 1135.33 382.583 1134.06 382.583C1132.83 382.583 1131.79 382.905 1130.94 383.548C1130.08 384.191 1129.44 385.093 1128.99 386.253C1128.56 387.413 1128.34 388.779 1128.34 390.35Z" fill="#4CAF4F"/>
</svg>
