<svg width="824" height="591" viewBox="0 0 824 591" fill="none" xmlns="http://www.w3.org/2000/svg">
<path d="M411.3 520.018C587.371 520.018 730.105 513.91 730.105 506.374C730.105 498.839 587.371 492.73 411.3 492.73C235.228 492.73 92.4941 498.839 92.4941 506.374C92.4941 513.91 235.228 520.018 411.3 520.018Z" fill="#F5F5F5"/>
<path d="M574.492 201.664L558.181 196.843C558.181 196.843 536.658 225.613 530.492 227.072C522.106 229.048 504.743 234.544 494.45 235.509C493.052 236.714 490.767 240.462 490.98 241.824C504.809 245.211 535.194 240.715 541.706 237.172C556.521 229.133 574.492 201.664 574.492 201.664Z" fill="#E58A7B"/>
<path d="M579.507 195.12C582.549 203.352 566.074 219.913 566.074 219.913L544.484 211.042C544.484 211.042 548.529 204.232 553.462 197.301C561.371 186.104 576.038 185.731 579.507 195.12Z" fill="#4CAF4F"/>
<path opacity="0.2" d="M579.507 195.12C582.549 203.352 566.074 219.913 566.074 219.913L544.484 211.042C544.484 211.042 548.529 204.232 553.462 197.301C561.371 186.104 576.038 185.731 579.507 195.12Z" fill="black"/>
<path opacity="0.2" d="M553.051 214.585L561.552 218.08L563.048 198.952C558.099 201.736 554.613 210.125 553.051 214.585Z" fill="black"/>
<path d="M565.301 188.924C565.301 188.924 548.497 216.332 558.296 267.364H624.511C625.563 259.916 622.077 223.564 634.689 188.466C627.425 187.425 620.076 186.737 612.689 186.405C603.319 186.007 593.925 186.007 584.555 186.405C578.06 186.888 571.623 187.731 565.301 188.924Z" fill="#4CAF4F"/>
<path opacity="0.2" d="M565.301 188.924C565.301 188.924 548.497 216.332 558.296 267.364H624.511C625.563 259.916 622.077 223.564 634.689 188.466C627.425 187.425 620.076 186.737 612.689 186.405C603.319 186.007 593.925 186.007 584.555 186.405C578.06 186.888 571.623 187.731 565.301 188.924Z" fill="black"/>
<g style="mix-blend-mode:multiply">
<path d="M549.943 507.459C549.845 508.761 574.952 509.81 606.012 509.81C637.073 509.81 662.361 508.761 662.46 507.459C662.559 506.158 637.467 505.121 606.391 505.121C575.314 505.121 550.058 506.17 549.943 507.459Z" fill="#E8ECF1"/>
</g>
<path d="M594.142 473.256L582.398 476.589L592.514 495.745L604.258 492.413L594.142 473.256Z" fill="#E58A7B"/>
<path d="M646.511 498.19H634.129L629.591 477.182H641.973L646.511 498.19Z" fill="#E58A7B"/>
<path d="M633.274 497.142H647.185C647.426 497.142 647.66 497.205 647.843 497.32C648.027 497.435 648.149 497.594 648.188 497.768L649.98 505.832C650.018 506.034 649.996 506.24 649.915 506.435C649.835 506.631 649.698 506.811 649.514 506.965C649.33 507.118 649.103 507.24 648.849 507.323C648.594 507.407 648.318 507.449 648.04 507.447C643.189 507.387 640.855 507.17 634.738 507.17C630.973 507.17 623.228 507.459 617.999 507.459C612.771 507.459 612.425 503.698 614.579 503.349C624.248 501.818 627.996 499.733 631.219 497.708C631.787 497.342 632.518 497.141 633.274 497.142Z" fill="#263238"/>
<path d="M592.168 494.032L605.322 491.212C605.557 491.163 605.807 491.175 606.032 491.245C606.256 491.316 606.441 491.44 606.555 491.598L611.488 498.829C611.603 499.013 611.661 499.213 611.66 499.414C611.658 499.616 611.596 499.815 611.479 499.998C611.362 500.18 611.191 500.342 610.98 500.471C610.768 500.6 610.521 500.694 610.255 500.746C605.47 501.71 602.264 502.301 596.279 503.578C592.152 504.458 587.942 505.892 583.865 506.845C581.036 507.508 574.394 507.532 570.957 507.532C565.876 507.532 564.742 503.602 566.929 503.422C572.437 502.976 573.177 503.181 576.219 502.06C581.196 500.465 585.707 498.181 589.504 495.334C590.22 494.736 591.139 494.287 592.168 494.032Z" fill="#263238"/>
<path d="M496.521 235.461L482.907 231.278L477.3 242.343C482.88 242.966 488.557 242.966 494.137 242.343L496.521 235.461Z" fill="#E58A7B"/>
<path d="M472.778 230.989L472.417 238.342L477.3 242.319L482.907 231.254L472.778 230.989Z" fill="#E58A7B"/>
<path d="M595.753 474.883L583.973 478.217L589.19 488.123L600.97 484.789L595.753 474.883Z" fill="#CF6F64"/>
<path d="M641.973 477.182H629.591L631.943 488.017H644.324L641.973 477.182Z" fill="#CF6F64"/>
<path opacity="0.2" d="M556.191 253.564C556.438 255.745 556.718 257.975 557.079 260.265L606.308 248.55C613.996 246.879 620.678 243.338 625.25 238.51C625.448 235.291 625.694 231.905 626.072 228.373C626.237 226.662 626.434 224.902 626.648 223.118C626.862 221.334 627.158 219.357 627.47 217.453L556.191 253.564Z" fill="black"/>
<path d="M572.272 214.03L570.628 213.886C571.598 207.859 577.731 203.11 584.193 203.231V204.436C578.537 204.352 573.144 208.63 572.272 214.03Z" fill="white"/>
<path d="M581.036 225.155H580.757V223.95C586.413 224.106 591.724 219.779 592.596 214.392L594.24 214.536C593.368 220.43 587.433 225.155 581.036 225.155Z" fill="white"/>
<path d="M611.767 163.179C609.449 169.82 606.72 181.981 612.688 186.405C612.688 186.405 608.512 193.142 591.691 193.142C576.317 193.142 584.555 186.405 584.555 186.405C594.782 184.645 594.963 179.173 593.615 173.99L611.767 163.179Z" fill="#E58A7B"/>
<path d="M604.368 167.591L593.631 173.991C593.964 175.182 594.157 176.392 594.207 177.607C597.347 179.897 603.645 174.099 604.286 171.134C604.612 169.967 604.64 168.766 604.368 167.591Z" fill="#CF6F64"/>
<path d="M575.166 163.095C575.913 164.044 576.919 164.87 578.122 165.521C579.324 166.172 580.697 166.635 582.154 166.879C586.101 167.518 588.074 164.854 586.988 162.179C586.018 159.768 582.779 156.526 578.767 157.08C577.908 157.21 577.103 157.489 576.421 157.893C575.739 158.298 575.199 158.816 574.846 159.405C574.494 159.994 574.339 160.637 574.394 161.278C574.45 161.92 574.715 162.543 575.166 163.095Z" fill="#CF6F64"/>
<path d="M581.694 141.846C575.544 143.907 573.374 161.817 581.102 164.469C588.83 167.121 593.335 137.929 581.694 141.846Z" fill="#263238"/>
<path d="M613.642 153.187C612.162 162.179 611.997 167.47 605.42 172.074C603.382 173.602 600.808 174.688 597.981 175.21C595.155 175.733 592.186 175.674 589.403 175.038C586.62 174.402 584.131 173.214 582.21 171.607C580.29 169.999 579.013 168.034 578.52 165.927C576.531 157.852 579.277 144.509 591.576 140.93C594.16 140.094 597.002 139.78 599.807 140.021C602.612 140.262 605.279 141.048 607.53 142.299C609.781 143.549 611.534 145.218 612.609 147.133C613.684 149.047 614.04 151.138 613.642 153.187Z" fill="#E58A7B"/>
<path d="M593.434 146.498C602.543 144.798 609.235 143.641 606.835 149.198C603.661 156.622 599.846 163.806 604.96 164.131C608.084 164.336 621.896 160.045 620.137 155.694C618.607 151.91 625.069 150.873 626.22 148.957C630.479 142.014 618.295 142.93 620.465 138.712C622.636 134.493 610.6 127.695 604.023 131.082C593.319 136.554 574.952 136.47 584.604 127.466C591.526 121.042 579.178 122.356 579.178 122.356C579.178 122.356 586.643 125.598 574.081 130.612C560.795 135.964 572.979 150.343 593.434 146.498Z" fill="#263238"/>
<path d="M618.476 163.095C616.678 165.002 613.976 166.351 610.896 166.879C606.835 167.518 605.273 164.854 606.802 162.179C608.166 159.768 611.915 156.526 615.796 157.08C619.676 157.635 620.564 160.732 618.476 163.095Z" fill="#E58A7B"/>
<path d="M558.296 267.364C558.296 267.364 547.181 340.284 546.31 367.958C545.422 396.74 583.98 486.547 583.98 486.547L603.711 480.52C603.711 480.52 580.691 398.464 583.98 370.2C587.465 339.381 601.869 267.412 601.869 267.412L558.296 267.364Z" fill="#4CAF4F"/>
<path opacity="0.2" d="M585.919 287.385C577.057 300.86 583.026 327.509 587.827 343.298C589.652 332.149 591.822 320.048 593.878 308.851C593.68 291.639 591.855 278.345 585.919 287.385Z" fill="black"/>
<path d="M602.839 475.748C602.938 475.748 605.174 480.352 605.174 480.352L582.417 487.367L578.833 482.474L602.839 475.748Z" fill="#4CAF4F"/>
<path d="M581.792 267.364C581.792 267.364 590.293 336.717 595.917 362.691C602.099 391.148 626.335 485.92 626.335 485.92H649.01C649.01 485.92 635.428 393.45 632.863 365.27C630.068 334.704 624.51 267.364 624.51 267.364H581.792Z" fill="#4CAF4F"/>
<path d="M649.355 481.593C649.454 481.593 650.111 486.234 650.111 486.234H625.184L623.409 480.906L649.355 481.593Z" fill="#4CAF4F"/>
<path opacity="0.2" d="M640.674 476.097C640.622 476.097 640.572 476.084 640.533 476.06C640.494 476.036 640.468 476.002 640.46 475.964C640.328 475.121 628.079 391.594 625.777 366.283C623.277 338.826 618.246 277.923 618.196 277.308C618.194 277.288 618.198 277.268 618.207 277.249C618.215 277.23 618.23 277.213 618.248 277.198C618.267 277.183 618.289 277.171 618.314 277.163C618.339 277.155 618.366 277.151 618.394 277.151C618.448 277.151 618.5 277.166 618.539 277.193C618.579 277.22 618.603 277.257 618.608 277.296C618.608 277.911 623.688 338.766 626.188 366.271C628.49 391.582 640.739 475.048 640.854 475.952C640.859 475.972 640.858 475.993 640.851 476.012C640.844 476.032 640.832 476.05 640.815 476.066C640.798 476.082 640.777 476.095 640.752 476.105C640.728 476.114 640.701 476.12 640.674 476.121V476.097Z" fill="black"/>
<path d="M594.831 155.694C594.831 156.429 594.207 157.02 593.549 157.02C592.891 157.02 592.414 156.429 592.48 155.694C592.546 154.959 593.105 154.368 593.763 154.368C594.42 154.368 594.897 154.971 594.831 155.694Z" fill="#263238"/>
<path d="M583.552 155.694C583.552 156.429 582.911 157.02 582.269 157.02C581.628 157.02 581.135 156.429 581.184 155.694C581.233 154.959 581.825 154.368 582.483 154.368C583.141 154.368 583.618 154.971 583.552 155.694Z" fill="#263238"/>
<path d="M587.103 156.068C585.731 158.313 583.962 160.417 581.842 162.324C583.486 163.529 586.561 162.975 586.561 162.975L587.103 156.068Z" fill="#DF5753"/>
<path d="M587.4 166.047C587.362 166.047 587.324 166.042 587.289 166.031C587.254 166.02 587.222 166.004 587.196 165.983C587.17 165.963 587.15 165.939 587.136 165.913C587.123 165.886 587.118 165.858 587.12 165.83C587.124 165.772 587.159 165.717 587.217 165.676C587.275 165.636 587.352 165.613 587.433 165.614C588.69 165.62 589.934 165.42 591.072 165.028C592.21 164.635 593.214 164.061 594.01 163.348C594.066 163.311 594.14 163.291 594.215 163.291C594.291 163.291 594.364 163.311 594.421 163.348C594.474 163.388 594.504 163.442 594.504 163.498C594.504 163.554 594.474 163.608 594.421 163.649C593.569 164.408 592.496 165.017 591.281 165.432C590.066 165.847 588.74 166.057 587.4 166.047Z" fill="#263238"/>
<path d="M596.837 153.476C596.758 153.506 596.671 153.521 596.583 153.521C596.494 153.521 596.407 153.506 596.328 153.476C595.713 153.185 595.013 153.003 594.284 152.947C593.556 152.89 592.82 152.96 592.135 153.151C592.068 153.175 591.995 153.19 591.921 153.193C591.846 153.197 591.772 153.189 591.701 153.171C591.631 153.153 591.566 153.125 591.51 153.089C591.455 153.052 591.41 153.008 591.378 152.958C591.317 152.851 591.316 152.73 591.374 152.622C591.433 152.514 591.546 152.427 591.691 152.379C592.55 152.122 593.482 152.021 594.407 152.084C595.331 152.147 596.222 152.372 597.002 152.741C597.065 152.772 597.119 152.813 597.16 152.86C597.202 152.906 597.23 152.959 597.244 153.014C597.258 153.069 597.257 153.125 597.241 153.18C597.224 153.234 597.193 153.286 597.15 153.332C597.067 153.401 596.958 153.451 596.837 153.476Z" fill="#263238"/>
<path d="M579.195 151.065C579.107 151.05 579.027 151.016 578.965 150.969C578.91 150.93 578.867 150.883 578.837 150.831C578.807 150.779 578.792 150.724 578.792 150.668C578.792 150.612 578.807 150.556 578.837 150.504C578.867 150.453 578.91 150.406 578.965 150.366C579.595 149.848 580.38 149.444 581.258 149.185C582.137 148.925 583.085 148.818 584.029 148.872C584.105 148.88 584.177 148.9 584.242 148.93C584.307 148.96 584.362 148.999 584.405 149.046C584.449 149.092 584.478 149.144 584.493 149.199C584.507 149.255 584.506 149.311 584.489 149.366C584.454 149.478 584.365 149.576 584.237 149.643C584.11 149.709 583.954 149.739 583.799 149.728C583.052 149.693 582.304 149.784 581.611 149.992C580.919 150.201 580.301 150.523 579.803 150.933C579.728 150.994 579.632 151.039 579.525 151.062C579.417 151.085 579.303 151.087 579.195 151.065Z" fill="#263238"/>
<path d="M641.052 200.326L623.951 196.987C623.951 196.987 607.18 227.252 601.244 229.217C593.187 231.917 572.782 241.27 564.1 245.693C563.623 247.2 564.002 251.189 565.087 252.286C579.885 250.309 608.216 242.318 614.135 238.257C627.634 228.988 641.052 200.326 641.052 200.326Z" fill="#E58A7B"/>
<path d="M629.114 498.733C628.28 498.781 627.448 498.615 626.763 498.263C626.551 498.123 626.393 497.944 626.303 497.746C626.214 497.547 626.197 497.335 626.253 497.13C626.264 497.002 626.321 496.878 626.419 496.772C626.518 496.666 626.654 496.581 626.812 496.527C628.193 496.009 632.057 497.805 632.501 498.01C632.55 498.032 632.588 498.065 632.609 498.104C632.629 498.143 632.632 498.186 632.616 498.227C632.602 498.269 632.574 498.307 632.534 498.339C632.493 498.371 632.443 498.394 632.386 498.407C631.314 498.6 630.218 498.71 629.114 498.733ZM627.47 496.853C627.345 496.832 627.216 496.832 627.092 496.853C627.029 496.876 626.976 496.912 626.941 496.957C626.906 497.002 626.89 497.054 626.894 497.106C626.851 497.246 626.858 497.392 626.916 497.53C626.973 497.667 627.08 497.791 627.223 497.889C627.865 498.311 629.476 498.359 631.597 498.058C630.334 497.448 628.912 497.038 627.421 496.853H627.47Z" fill="#4CAF4F"/>
<path d="M632.304 498.407C632.261 498.417 632.215 498.417 632.173 498.407C630.939 497.901 628.621 495.912 628.966 494.9C629.018 494.739 629.142 494.596 629.318 494.493C629.494 494.391 629.711 494.334 629.936 494.333C630.157 494.312 630.382 494.325 630.594 494.373C630.807 494.421 631.003 494.502 631.17 494.61C632.534 495.466 632.617 498.094 632.617 498.226C632.625 498.266 632.614 498.306 632.588 498.341C632.561 498.376 632.519 498.404 632.469 498.419C632.413 498.427 632.356 498.423 632.304 498.407ZM630.101 494.731H629.986C629.608 494.731 629.558 494.888 629.542 494.948C629.344 495.539 630.808 497.045 632.025 497.756C632.019 496.738 631.589 495.746 630.791 494.912C630.601 494.79 630.354 494.725 630.101 494.731Z" fill="#4CAF4F"/>
<path d="M585.459 497.227C584.453 497.484 583.358 497.484 582.352 497.227C582.123 497.136 581.929 497.004 581.789 496.844C581.648 496.684 581.564 496.501 581.546 496.311C581.525 496.191 581.546 496.07 581.606 495.959C581.667 495.847 581.765 495.748 581.891 495.672C583.207 494.804 588.583 495.672 589.192 495.84C589.25 495.851 589.301 495.876 589.337 495.912C589.372 495.947 589.391 495.99 589.389 496.033C589.391 496.079 589.376 496.123 589.343 496.162C589.311 496.2 589.264 496.231 589.208 496.25C587.997 496.651 586.743 496.978 585.459 497.227ZM582.779 495.792C582.591 495.82 582.416 495.882 582.269 495.973C582.217 496.002 582.177 496.041 582.154 496.086C582.13 496.13 582.125 496.179 582.138 496.226C582.149 496.353 582.202 496.475 582.294 496.583C582.386 496.69 582.513 496.779 582.664 496.841C583.535 497.178 585.558 496.913 588.172 496.106C586.411 495.78 584.588 495.674 582.779 495.792Z" fill="#4CAF4F"/>
<path d="M589.159 496.249H589.028C587.383 496.032 584.095 494.646 583.996 493.61C583.996 493.369 584.144 493.031 584.933 492.838C585.2 492.769 585.483 492.739 585.766 492.752C586.048 492.764 586.324 492.818 586.578 492.911C588.353 493.55 589.291 495.864 589.34 495.972C589.352 496.009 589.35 496.047 589.336 496.083C589.321 496.118 589.294 496.151 589.258 496.177C589.233 496.207 589.199 496.231 589.159 496.249ZM585.262 493.2H585.098C584.588 493.333 584.588 493.489 584.588 493.538C584.588 494.164 586.972 495.309 588.633 495.695C588.25 494.727 587.441 493.879 586.331 493.284C586.001 493.161 585.62 493.131 585.262 493.2Z" fill="#4CAF4F"/>
<path d="M565.498 244.982L548.348 250.768L546.359 254.384L552.689 257.505C552.689 257.505 564.528 256.565 567.899 250.985L565.498 244.982Z" fill="#E58A7B"/>
<path d="M566.222 252.491C565.838 250.076 564.75 247.749 563.032 245.669L565.745 244.175C567.786 246.571 569.088 249.266 569.559 252.069L566.222 252.491Z" fill="#263238"/>
<path d="M569.148 246.694C569.511 247.112 569.689 247.602 569.658 248.096C569.628 248.591 569.39 249.067 568.977 249.459C568.564 249.852 567.997 250.141 567.352 250.289C566.707 250.436 566.015 250.434 565.372 250.283C564.728 250.133 564.163 249.84 563.755 249.446C563.346 249.051 563.113 248.574 563.087 248.079C563.061 247.584 563.244 247.095 563.611 246.679C563.977 246.263 564.51 245.94 565.136 245.754C565.839 245.491 566.655 245.443 567.406 245.619C568.157 245.795 568.783 246.181 569.148 246.694Z" fill="#263238"/>
<path d="M536.756 255.444L539.042 257.132L554.432 252.31L548.348 250.768L536.756 255.444Z" fill="#E58A7B"/>
<path opacity="0.2" d="M602.839 475.748C602.938 475.748 605.174 480.352 605.174 480.352L582.417 487.367L578.833 482.474L602.839 475.748Z" fill="black"/>
<path opacity="0.2" d="M649.355 481.593C649.454 481.593 650.111 486.234 650.111 486.234H625.184L623.409 480.906L649.355 481.593Z" fill="black"/>
<path d="M645.508 196.855C650.03 207.546 632.354 222.166 632.354 222.166L607.937 214.862C610.831 208.683 614.168 202.619 617.934 196.698C625.431 184.85 640.937 186.067 645.508 196.855Z" fill="#4CAF4F"/>
<path opacity="0.2" d="M645.508 196.855C650.03 207.546 632.354 222.166 632.354 222.166L607.937 214.862C610.831 208.683 614.168 202.619 617.934 196.698C625.431 184.85 640.937 186.067 645.508 196.855Z" fill="black"/>
<path d="M402.881 89.7412H392.374V90.9827H402.881V89.7412Z" fill="#4CAF4F"/>
<path d="M538.891 138.877L537.619 159.562L539.311 159.618L540.583 138.932L538.891 138.877Z" fill="#4CAF4F"/>
<path d="M535.622 95.3096H341.599L323.545 391.474H517.568L535.622 95.3096Z" fill="#4CAF4F"/>
<path opacity="0.56" d="M529.834 99.3838H335.811L317.757 395.548H511.78L529.834 99.3838Z" fill="#FAFAFA"/>
<path opacity="0.07" d="M524.046 103.445H330.024L311.953 399.61H505.976L524.046 103.445Z" fill="#4CAF4F"/>
<path d="M501.964 232.616H336.354L334.973 255.276H500.583L501.964 232.616Z" fill="white"/>
<path d="M427.429 216.08H337.357L336.749 226.217H426.821L427.429 216.08Z" fill="#4CAF4F"/>
<path d="M498.231 293.773H332.621L331.24 316.433H496.85L498.231 293.773Z" fill="white"/>
<path opacity="0.47" d="M467.862 347.035H356.496L354.835 374.19H466.201L467.862 347.035Z" fill="#4CAF4F"/>
<path d="M460.414 378.409H349.048C348.999 378.418 348.948 378.418 348.9 378.409C348.884 378.374 348.884 378.336 348.9 378.3L350.544 351.133C350.544 351.115 350.549 351.096 350.559 351.079C350.569 351.063 350.584 351.047 350.603 351.035C350.621 351.022 350.643 351.013 350.667 351.007C350.691 351.001 350.716 350.999 350.741 351.001H462.107C462.128 350.993 462.15 350.989 462.173 350.989C462.196 350.989 462.218 350.993 462.239 351.001C462.25 351.015 462.256 351.032 462.256 351.049C462.256 351.066 462.25 351.082 462.239 351.097L460.627 378.325C460.608 378.353 460.577 378.376 460.538 378.391C460.5 378.406 460.457 378.412 460.414 378.409ZM349.245 378.12H460.216L461.861 351.242H350.889L349.245 378.12Z" fill="white"/>
<path d="M407.978 277.236H333.624L333.016 287.385H407.353L407.978 277.236Z" fill="#4CAF4F"/>
<path d="M465.741 159.419C465.316 166.014 462.117 172.35 456.582 177.559C452.486 181.493 447.214 184.687 441.171 186.895C435.128 189.104 428.476 190.268 421.724 190.299C416.268 190.329 410.861 189.54 405.836 187.981C400.812 186.422 396.276 184.125 392.508 181.232C388.74 178.339 385.82 174.911 383.928 171.16C382.036 167.409 381.211 163.413 381.505 159.419C382.084 151.131 386.959 143.319 395.135 137.579C403.311 131.839 414.169 128.605 425.489 128.539C430.95 128.502 436.362 129.286 441.393 130.842C446.424 132.399 450.966 134.695 454.738 137.589C458.51 140.483 461.433 143.914 463.326 147.668C465.218 151.423 466.04 155.422 465.741 159.419Z" fill="white"/>
<path d="M469.704 135C469.596 136.754 468.746 138.439 467.27 139.821C466.178 140.866 464.775 141.714 463.168 142.301C461.561 142.888 459.792 143.198 457.996 143.208C456.257 143.216 454.541 142.911 452.999 142.321C451.457 141.73 450.136 140.872 449.15 139.821C447.846 138.401 447.2 136.71 447.309 135C447.468 132.8 448.766 130.727 450.938 129.204C453.11 127.681 455.994 126.822 458.999 126.804C460.45 126.794 461.887 127.002 463.223 127.415C464.559 127.828 465.766 128.438 466.769 129.205C467.772 129.973 468.55 130.884 469.054 131.88C469.559 132.877 469.78 133.938 469.704 135Z" fill="#4CAF4F"/>
<path d="M354.194 243.946C354.115 244.917 353.537 245.831 352.576 246.502C351.615 247.173 350.342 247.551 349.015 247.562C348.374 247.568 347.738 247.477 347.147 247.295C346.556 247.113 346.022 246.845 345.579 246.506C345.135 246.167 344.79 245.765 344.567 245.325C344.344 244.884 344.246 244.415 344.279 243.946C344.351 242.973 344.927 242.056 345.89 241.384C346.852 240.712 348.129 240.335 349.459 240.33C350.099 240.326 350.734 240.418 351.323 240.601C351.913 240.783 352.446 241.051 352.89 241.39C353.333 241.729 353.678 242.13 353.902 242.569C354.126 243.009 354.226 243.477 354.194 243.946Z" fill="#263238"/>
<path d="M376.359 243.946C376.284 244.918 375.707 245.833 374.745 246.505C373.783 247.176 372.508 247.554 371.18 247.562C370.54 247.566 369.906 247.474 369.317 247.292C368.728 247.109 368.196 246.84 367.754 246.502C367.312 246.163 366.969 245.762 366.747 245.322C366.524 244.883 366.427 244.414 366.461 243.946C366.532 242.975 367.105 242.06 368.065 241.388C369.024 240.717 370.297 240.338 371.624 240.33C372.264 240.325 372.9 240.416 373.491 240.597C374.082 240.779 374.616 241.047 375.06 241.386C375.504 241.725 375.848 242.127 376.072 242.568C376.295 243.008 376.393 243.477 376.359 243.946Z" fill="#263238"/>
<path d="M398.54 243.946C398.465 244.918 397.887 245.833 396.925 246.505C395.963 247.176 394.689 247.554 393.36 247.562C392.72 247.566 392.086 247.474 391.496 247.292C390.906 247.109 390.373 246.841 389.929 246.502C389.486 246.164 389.142 245.762 388.917 245.323C388.693 244.883 388.593 244.415 388.625 243.946C388.7 242.974 389.277 242.059 390.239 241.388C391.201 240.716 392.476 240.338 393.804 240.33C394.445 240.325 395.081 240.416 395.672 240.597C396.263 240.779 396.797 241.047 397.241 241.386C397.684 241.725 398.029 242.127 398.252 242.568C398.476 243.008 398.573 243.477 398.54 243.946Z" fill="#263238"/>
<path d="M350.462 305.103C350.383 306.075 349.804 306.988 348.843 307.659C347.882 308.33 346.609 308.709 345.282 308.719C344.642 308.723 344.007 308.631 343.417 308.449C342.828 308.267 342.295 307.998 341.851 307.659C341.408 307.321 341.063 306.92 340.839 306.48C340.615 306.04 340.515 305.572 340.547 305.103C340.622 304.131 341.199 303.216 342.161 302.545C343.123 301.873 344.398 301.495 345.726 301.487C346.366 301.484 347.001 301.576 347.591 301.758C348.181 301.94 348.714 302.209 349.157 302.547C349.6 302.886 349.945 303.287 350.169 303.727C350.393 304.166 350.493 304.635 350.462 305.103Z" fill="#263238"/>
<path d="M372.626 305.103C372.551 306.073 371.976 306.987 371.018 307.658C370.059 308.329 368.789 308.709 367.463 308.719C366.822 308.725 366.187 308.634 365.596 308.452C365.005 308.271 364.471 308.002 364.027 307.663C363.583 307.324 363.239 306.922 363.015 306.482C362.792 306.042 362.694 305.572 362.728 305.103C362.803 304.131 363.38 303.216 364.342 302.545C365.304 301.873 366.579 301.495 367.907 301.487C368.547 301.483 369.18 301.576 369.77 301.758C370.359 301.94 370.891 302.209 371.333 302.548C371.775 302.887 372.118 303.288 372.34 303.727C372.562 304.167 372.66 304.635 372.626 305.103Z" fill="#263238"/>
<path d="M394.857 305.103C394.782 306.076 394.204 306.991 393.242 307.662C392.28 308.334 391.006 308.712 389.677 308.719C389.038 308.721 388.404 308.628 387.816 308.445C387.227 308.263 386.695 307.994 386.252 307.656C385.809 307.318 385.464 306.917 385.239 306.478C385.014 306.039 384.913 305.572 384.942 305.103C385.021 304.132 385.599 303.219 386.56 302.548C387.522 301.877 388.794 301.498 390.121 301.488C390.762 301.482 391.398 301.573 391.989 301.754C392.58 301.936 393.114 302.205 393.558 302.543C394.001 302.882 394.346 303.284 394.569 303.725C394.793 304.165 394.891 304.634 394.857 305.103Z" fill="#263238"/>
<path d="M416.989 305.103C416.91 306.075 416.331 306.988 415.37 307.659C414.409 308.33 413.136 308.709 411.809 308.719C411.17 308.721 410.536 308.628 409.947 308.445C409.359 308.262 408.827 307.994 408.384 307.656C407.941 307.317 407.596 306.917 407.371 306.478C407.146 306.039 407.045 305.572 407.074 305.103C407.153 304.132 407.731 303.219 408.692 302.548C409.653 301.877 410.926 301.498 412.253 301.487C412.893 301.484 413.528 301.576 414.118 301.758C414.708 301.94 415.241 302.209 415.684 302.547C416.127 302.886 416.472 303.287 416.696 303.727C416.92 304.166 417.02 304.635 416.989 305.103Z" fill="#263238"/>
<path d="M439.252 305.103C439.173 306.075 438.595 306.988 437.633 307.659C436.672 308.33 435.4 308.709 434.073 308.719C433.432 308.725 432.796 308.634 432.205 308.452C431.614 308.271 431.08 308.002 430.636 307.663C430.192 307.324 429.848 306.922 429.625 306.482C429.401 306.042 429.303 305.572 429.337 305.103C429.412 304.131 429.989 303.216 430.951 302.545C431.913 301.873 433.188 301.495 434.516 301.487C435.157 301.484 435.791 301.576 436.381 301.758C436.971 301.94 437.504 302.209 437.947 302.547C438.391 302.886 438.735 303.287 438.959 303.727C439.184 304.166 439.283 304.635 439.252 305.103Z" fill="#263238"/>
<path d="M435.886 157.811C442.769 152.878 443.134 144.97 436.702 140.149C430.27 135.328 419.478 135.419 412.595 140.353C405.713 145.286 405.348 153.193 411.78 158.015C418.211 162.836 429.004 162.745 435.886 157.811Z" fill="#4CAF4F"/>
<path d="M456.582 177.558C452.486 181.493 447.214 184.687 441.171 186.895C435.129 189.103 428.476 190.268 421.724 190.298C415.177 190.339 408.716 189.198 402.913 186.976C397.109 184.755 392.14 181.52 388.444 177.558C396.435 171.725 409.08 167.916 423.089 167.916C437.098 167.916 449.298 171.725 456.582 177.558Z" fill="#4CAF4F"/>
<path opacity="0.1" d="M435.886 157.811C442.769 152.878 443.134 144.97 436.702 140.149C430.27 135.328 419.478 135.419 412.595 140.353C405.713 145.286 405.348 153.193 411.78 158.015C418.211 162.836 429.004 162.745 435.886 157.811Z" fill="white"/>
<path opacity="0.1" d="M456.582 177.558C452.486 181.493 447.214 184.687 441.171 186.895C435.129 189.103 428.476 190.268 421.724 190.298C415.177 190.339 408.716 189.198 402.913 186.976C397.109 184.755 392.14 181.52 388.444 177.558C396.435 171.725 409.08 167.916 423.089 167.916C437.098 167.916 449.298 171.725 456.582 177.558Z" fill="white"/>
<path d="M214.663 260.735C213.101 263.242 211.457 266.002 210.026 268.678C208.596 271.354 207.132 274.114 205.866 276.862C203.281 282.278 201.312 287.841 199.98 293.495L199.618 295.267C199.584 295.571 199.623 295.877 199.733 296.171C200.121 297.17 200.732 298.115 201.542 298.967C203.653 301.174 206.103 303.196 208.842 304.994C211.731 306.963 214.76 308.818 217.919 310.55C221.076 312.334 224.397 314.069 227.669 315.709L224.594 319.939C216.781 317.444 209.365 314.327 202.479 310.646C198.805 308.682 195.49 306.382 192.614 303.8C190.909 302.264 189.579 300.523 188.684 298.654C188.163 297.486 187.897 296.266 187.895 295.038C187.895 294.749 187.895 294.327 187.895 294.122V293.531L188.059 292.326C189.002 286.046 190.803 279.852 193.436 273.837C194.718 270.872 196.083 267.919 197.645 265.038C199.207 262.157 200.818 259.337 202.808 256.408L214.663 260.735Z" fill="#E58A7B"/>
<path d="M225.35 314.961L236.975 310.646L233.966 320C233.966 320 225.992 321.639 222.292 318.794L225.35 314.961Z" fill="#E58A7B"/>
<path d="M247.614 312.177L244.522 319.915L233.966 320L236.975 310.646L247.614 312.177Z" fill="#E58A7B"/>
<path d="M264.024 215.609C264.645 217.28 265.511 218.896 266.605 220.431C266.285 220.696 265.874 220.894 265.413 221.002C264.953 221.11 264.462 221.125 263.991 221.045L264.024 215.609Z" fill="#DF5753"/>
<path d="M263.678 215.681C264.359 215.681 264.911 215.061 264.911 214.295C264.911 213.53 264.359 212.909 263.678 212.909C262.997 212.909 262.445 213.53 262.445 214.295C262.445 215.061 262.997 215.681 263.678 215.681Z" fill="#263238"/>
<path d="M263.316 212.958L265.816 212.439C265.816 212.439 264.599 213.862 263.316 212.958Z" fill="#263238"/>
<path d="M231.911 224.456C233.407 230.061 234.904 240.342 229.543 244.09C229.543 244.09 231.648 249.779 245.871 249.779C261.508 249.779 253.336 244.09 253.336 244.09C244.802 242.596 245.016 237.955 246.512 233.592L231.911 224.456Z" fill="#E58A7B"/>
<path d="M227.751 211.68C228.54 221.045 228.606 225.022 235.051 229.832C244.769 237.063 260.291 234.315 263.333 225.01C266.079 216.573 264.336 202.688 251.823 198.964C249.076 198.135 246.086 197.832 243.136 198.086C240.186 198.34 237.373 199.141 234.963 200.415C232.553 201.688 230.625 203.39 229.363 205.362C228.102 207.333 227.546 209.507 227.751 211.68Z" fill="#E58A7B"/>
<path d="M229.017 201.146C222.605 202.857 214.055 201.58 217.409 216.079C220.96 231.435 215.501 236.485 215.501 236.485C215.501 236.485 239.82 240.281 264.648 236.256C264.648 236.256 257.068 226.541 259.189 219.382C261.903 210.342 259.765 207.003 259.765 207.003C259.765 207.003 238.028 198.735 229.017 201.146Z" fill="#263238"/>
<path d="M256.147 216.561C256.154 218.342 256.85 220.085 258.153 221.587C259.896 223.54 261.952 222.793 262.461 220.72C262.922 218.9 262.577 215.681 260.357 214.428C258.137 213.174 256.18 214.404 256.147 216.561Z" fill="#E58A7B"/>
<path d="M223.443 202.725C221.602 198.928 230.382 193.082 248.962 195.493C267.542 197.904 268.348 209.245 268.348 209.245L264.599 205.967L264.763 209.414L245.674 212.102L223.443 202.725Z" fill="#263238"/>
<path d="M225.022 244.729C224.912 244.179 225.1 243.619 225.545 243.169C225.991 242.719 226.658 242.414 227.406 242.319C233.194 241.62 246.348 240.197 252.958 240.872C257.891 241.379 259.173 243.476 259.387 245.199C259.42 245.501 259.365 245.805 259.225 246.09C259.085 246.375 258.864 246.634 258.576 246.851C258.288 247.068 257.939 247.237 257.555 247.347C257.17 247.458 256.757 247.506 256.345 247.49L227.768 246.549C227.094 246.524 226.453 246.33 225.952 245.998C225.452 245.666 225.123 245.218 225.022 244.729Z" fill="#4CAF4F"/>
<path opacity="0.6" d="M225.022 244.729C224.912 244.179 225.1 243.619 225.545 243.169C225.991 242.719 226.658 242.414 227.406 242.319C233.194 241.62 246.348 240.197 252.958 240.872C257.891 241.379 259.173 243.476 259.387 245.199C259.42 245.501 259.365 245.805 259.225 246.09C259.085 246.375 258.864 246.634 258.576 246.851C258.288 247.068 257.939 247.237 257.555 247.347C257.17 247.458 256.757 247.506 256.345 247.49L227.768 246.549C227.094 246.524 226.453 246.33 225.952 245.998C225.452 245.666 225.123 245.218 225.022 244.729Z" fill="black"/>
<path d="M241.546 455.294L252.152 460.694L269.893 443.061L259.288 437.673L241.546 455.294Z" fill="#E58A7B"/>
<path d="M216.816 454.945L228.014 459.621L243.717 440.975L232.519 436.299L216.816 454.945Z" fill="#E58A7B"/>
<path d="M269.877 443.061L260.735 452.148L250.129 446.761L259.271 437.673L269.877 443.061Z" fill="#CF6F64"/>
<path d="M232.503 436.299L243.717 440.987L235.627 450.594L224.413 445.905L232.503 436.299Z" fill="#CF6F64"/>
<path d="M250.491 303.596C250.491 303.596 291.894 341.84 284.116 378.42C277.852 407.962 241.513 447.966 241.513 447.966L224.43 441.746C236.471 424.059 246.747 405.755 255.177 386.978C257.777 381.148 258.535 374.962 257.396 368.886C256.257 362.81 253.249 357.003 248.6 351.904C227.619 329.449 194.011 342.816 216.619 303.596H250.491Z" fill="#4CAF4F"/>
<path opacity="0.6" d="M250.491 303.596C250.491 303.596 291.894 341.84 284.116 378.42C277.852 407.962 241.513 447.966 241.513 447.966L224.43 441.746C236.471 424.059 246.747 405.755 255.177 386.978C257.777 381.148 258.535 374.962 257.396 368.886C256.257 362.81 253.249 357.003 248.6 351.904C227.619 329.449 194.011 342.816 216.619 303.596H250.491Z" fill="black"/>
<path opacity="0.4" d="M270.798 328.16L264.78 323.772C264.78 324.122 276.438 376.878 279.71 391.703C281.641 387.372 283.119 382.94 284.133 378.445C287.98 360.498 279.94 342.165 270.798 328.16Z" fill="black"/>
<path d="M268.972 303.596C268.972 303.596 318.826 351.663 320.24 380.481C321.408 404.587 265.98 451.292 265.98 451.292L249.866 443.651C249.866 443.651 282.307 410.481 290.479 383.386C287.322 356.532 220.565 303.596 220.565 303.596H268.972Z" fill="#4CAF4F"/>
<path opacity="0.6" d="M268.972 303.596C268.972 303.596 318.826 351.663 320.24 380.481C321.408 404.587 265.98 451.292 265.98 451.292L249.866 443.651C249.866 443.651 282.307 410.481 290.479 383.386C287.322 356.532 220.565 303.596 220.565 303.596H268.972Z" fill="black"/>
<path d="M207.297 246.236C201.969 247.164 196.855 261.363 196.855 261.363L217.688 271.559C217.688 271.559 224.627 260.326 222.194 255.408C219.678 250.286 213.989 245.067 207.297 246.236Z" fill="#4CAF4F"/>
<path opacity="0.2" d="M211.374 255.384L209.927 267.762L217.672 271.571C219.81 268.042 221.393 264.346 222.391 260.554L211.374 255.384Z" fill="black"/>
<path d="M275.139 246.513C275.139 246.513 281.288 248.092 268.973 303.584H216.586C217.474 287.915 217.491 278.273 207.296 246.236C214.632 245.128 222.067 244.411 229.543 244.091C237.464 243.674 245.415 243.674 253.336 244.091C263.563 244.778 275.139 246.513 275.139 246.513Z" fill="#4CAF4F"/>
<path d="M280.466 255.384C281.65 257.795 282.899 260.386 284.215 262.881C285.53 265.376 286.78 267.943 288.112 270.475L292.14 278.044L293.16 279.936L293.686 280.876L293.932 281.346C293.932 281.431 293.932 281.431 293.932 281.419C293.632 281.108 293.238 280.852 292.781 280.671C292.131 280.391 291.398 280.23 290.644 280.201C290.018 280.187 289.395 280.273 288.819 280.454C288.062 280.708 288.062 280.816 288.079 280.804C288.216 280.724 288.337 280.63 288.441 280.527C289.351 279.651 290.139 278.71 290.792 277.718C291.565 276.61 292.305 275.428 293.045 274.235C294.491 271.824 295.823 269.33 297.155 266.81C298.487 264.291 299.753 261.748 300.986 259.181L304.735 251.491L311.066 252.697C309.816 258.193 308.205 263.544 306.264 268.992C305.327 271.704 304.225 274.392 302.976 277.104C302.351 278.466 301.66 279.816 300.871 281.202C300.049 282.706 299.036 284.151 297.846 285.517C297.408 285.976 296.925 286.412 296.399 286.818C295.559 287.483 294.54 288.013 293.406 288.373C292.4 288.69 291.31 288.838 290.216 288.807C288.991 288.774 287.797 288.512 286.747 288.048C285.508 287.481 284.48 286.698 283.754 285.77C283.508 285.456 283.294 285.143 283.146 284.914L282.834 284.456L282.209 283.516L280.959 281.648C279.315 279.141 277.671 276.61 276.24 274.066C274.81 271.523 273.297 268.944 271.883 266.352C270.469 263.761 269.203 261.17 268.002 258.373L280.466 255.384Z" fill="#E58A7B"/>
<path d="M275.138 246.513C281.436 247.61 288.523 261.254 288.523 261.254L269.795 272.934C269.795 272.934 257.676 258.06 260.126 253.155C262.675 248.044 266.917 245.079 275.138 246.513Z" fill="#4CAF4F"/>
<path d="M307.712 247.176L314.289 243.15L318.86 248.369L315.489 252.72C315.489 252.72 310.129 256.336 305.393 254.492C304.642 253.254 304.461 251.87 304.88 250.549C305.298 249.229 306.292 248.045 307.712 247.176Z" fill="#E58A7B"/>
<path d="M326.16 243.162L325.667 244.476L315.259 245.754L314.239 243.15L326.16 243.162Z" fill="#E58A7B"/>
<path d="M267.262 451.907L248.485 443.012L251.856 438.721L272.951 448.23L267.262 451.907Z" fill="#4CAF4F"/>
<path d="M235.364 458.994C233.716 458.847 232.133 458.435 230.727 457.789C230.669 457.774 230.619 457.747 230.583 457.71C230.547 457.673 230.528 457.629 230.528 457.584C230.528 457.539 230.547 457.495 230.583 457.459C230.619 457.422 230.669 457.394 230.727 457.379C231.237 457.259 235.66 456.258 236.942 457.03C237.086 457.118 237.196 457.232 237.26 457.361C237.323 457.491 237.339 457.63 237.304 457.765C237.281 457.982 237.183 458.191 237.019 458.373C236.855 458.554 236.631 458.702 236.367 458.802C236.059 458.925 235.715 458.991 235.364 458.994ZM231.664 457.669C233.72 458.44 235.364 458.717 236.153 458.428C236.325 458.358 236.47 458.257 236.573 458.135C236.677 458.013 236.736 457.873 236.745 457.729C236.745 457.536 236.745 457.452 236.597 457.403C235.906 456.994 233.44 457.307 231.631 457.669H231.664Z" fill="#263238"/>
<path d="M230.842 457.874C230.755 457.873 230.673 457.847 230.612 457.801C230.588 457.768 230.575 457.731 230.575 457.693C230.575 457.655 230.588 457.618 230.612 457.584C230.612 457.476 231.681 454.86 233.358 454.27C233.572 454.198 233.805 454.161 234.04 454.161C234.276 454.161 234.508 454.198 234.723 454.27C234.954 454.323 235.153 454.432 235.29 454.578C235.428 454.724 235.494 454.9 235.479 455.077C235.364 456.162 232.355 457.657 230.974 457.91L230.842 457.874ZM234.032 454.583C233.872 454.587 233.715 454.616 233.572 454.668C232.552 455.029 231.714 456.439 231.303 457.295C232.75 456.849 234.739 455.668 234.805 455.005C234.805 454.897 234.805 454.764 234.427 454.643C234.304 454.595 234.17 454.562 234.032 454.547V454.583Z" fill="#263238"/>
<path d="M258.828 464.201C256.97 464.201 254.388 462.454 252.974 461.381C252.938 461.344 252.918 461.3 252.918 461.254C252.918 461.209 252.938 461.165 252.974 461.128C253.006 461.089 253.053 461.057 253.108 461.036C253.163 461.015 253.224 461.005 253.286 461.007C253.944 461.007 259.65 461.634 260.455 462.815C260.541 462.921 260.586 463.042 260.586 463.165C260.586 463.288 260.541 463.408 260.455 463.514C260.335 463.698 260.152 463.857 259.925 463.975C259.698 464.093 259.433 464.166 259.156 464.189L258.828 464.201ZM254.059 461.55C256.131 463.02 257.956 463.84 258.992 463.743C259.173 463.726 259.346 463.676 259.495 463.598C259.644 463.521 259.765 463.417 259.847 463.297C259.884 463.256 259.903 463.208 259.903 463.159C259.903 463.109 259.884 463.061 259.847 463.02C259.42 462.369 256.378 461.815 254.059 461.55Z" fill="#263238"/>
<path d="M254.24 461.489C253.871 461.497 253.502 461.477 253.138 461.429C253.087 461.424 253.039 461.408 252.999 461.385C252.959 461.362 252.927 461.331 252.908 461.296C252.883 461.261 252.871 461.222 252.871 461.182C252.871 461.142 252.883 461.103 252.908 461.067C253.007 460.983 255.226 459.018 257.331 458.886C257.927 458.852 258.517 458.99 258.975 459.272C259.617 459.681 259.584 460.043 259.419 460.272C259.008 461.092 256.164 461.489 254.24 461.489ZM253.812 461.043C255.654 461.116 258.597 460.67 258.975 460.079C258.975 460.079 259.107 459.886 258.679 459.621C258.509 459.513 258.31 459.431 258.096 459.381C257.881 459.332 257.654 459.315 257.43 459.332C256.012 459.622 254.749 460.223 253.812 461.055V461.043Z" fill="#263238"/>
<path d="M231.286 456.571L217.343 453.679C217.102 453.625 216.843 453.639 216.616 453.717C216.388 453.794 216.208 453.931 216.109 454.1L211.407 461.85C211.296 462.049 211.245 462.262 211.255 462.477C211.265 462.691 211.337 462.901 211.466 463.093C211.595 463.286 211.778 463.456 212.003 463.593C212.228 463.73 212.49 463.83 212.772 463.887C217.704 464.828 220.072 465.093 226.205 466.382C229.987 467.154 235.38 468.588 240.592 469.673C245.805 470.758 247.548 467.033 245.525 466.238C236.383 462.694 235.66 460.211 233.16 457.56C232.713 457.079 232.049 456.73 231.286 456.571Z" fill="#4CAF4F"/>
<path d="M253.352 459.97L241.448 453.944C241.246 453.836 240.997 453.787 240.748 453.804C240.5 453.822 240.269 453.906 240.099 454.04L232.207 460.26C232.015 460.421 231.871 460.609 231.786 460.814C231.701 461.018 231.676 461.234 231.714 461.446C231.751 461.658 231.849 461.862 232.003 462.044C232.156 462.226 232.36 462.382 232.602 462.502C236.794 464.563 238.965 465.394 244.21 468.058C247.499 469.697 253.862 473.337 258.301 475.603C262.741 477.869 266.046 474.759 264.467 473.53C257.397 467.998 255.851 464.527 254.684 461.381C254.481 460.81 254.009 460.31 253.352 459.97Z" fill="#4CAF4F"/>
<path d="M243.7 448.761L222.243 440.939L224.462 436.672L247.383 444.916L243.7 448.761Z" fill="#4CAF4F"/>
<path d="M215.797 301.33L213.989 304.801C213.808 305.066 214.235 305.343 214.844 305.343H269.236C269.713 305.343 270.107 305.174 270.14 304.958L270.601 301.51C270.601 301.281 270.222 301.076 269.713 301.076H216.652C216.493 301.065 216.332 301.083 216.183 301.127C216.034 301.171 215.902 301.24 215.797 301.33Z" fill="#4CAF4F"/>
<path opacity="0.4" d="M215.797 301.33L213.989 304.801C213.808 305.066 214.235 305.343 214.844 305.343H269.236C269.713 305.343 270.107 305.174 270.14 304.958L270.601 301.51C270.601 301.281 270.222 301.076 269.713 301.076H216.652C216.493 301.065 216.332 301.083 216.183 301.127C216.034 301.171 215.902 301.24 215.797 301.33Z" fill="white"/>
<path d="M224.364 305.681H222.933C222.654 305.681 222.44 305.572 222.456 305.44L223.131 300.968C223.131 300.848 223.394 300.739 223.673 300.739H225.104C225.383 300.739 225.597 300.848 225.581 300.968L224.906 305.44C224.89 305.572 224.643 305.681 224.364 305.681Z" fill="#4CAF4F"/>
<path d="M257.907 305.681H256.493C256.213 305.681 256 305.572 256.016 305.44L256.674 300.968C256.674 300.848 256.953 300.739 257.233 300.739H258.647C258.926 300.739 259.157 300.848 259.124 300.968L258.466 305.44C258.384 305.572 258.203 305.681 257.907 305.681Z" fill="#4CAF4F"/>
<g style="mix-blend-mode:multiply">
<path d="M223.114 509.798C247.442 509.798 267.164 508.751 267.164 507.459C267.164 506.168 247.442 505.121 223.114 505.121C198.786 505.121 179.064 506.168 179.064 507.459C179.064 508.751 198.786 509.798 223.114 509.798Z" fill="#F5F5F5"/>
</g>
<path d="M249.949 504.156C242.155 502.493 233.506 500.36 228.277 498.13C228.129 498.058 227.965 498.021 227.817 497.961V472.095H243.585C244.782 472.044 245.907 471.658 246.729 471.019C247.552 470.379 248.01 469.533 248.01 468.654C248.01 467.775 247.552 466.93 246.729 466.29C245.907 465.65 244.782 465.265 243.585 465.213H227.899V347.312H218.428V465.213H202.758C202.118 465.186 201.478 465.254 200.875 465.414C200.273 465.575 199.721 465.824 199.255 466.146C198.788 466.468 198.417 466.857 198.163 467.288C197.909 467.72 197.778 468.185 197.778 468.654C197.778 469.124 197.909 469.589 198.163 470.021C198.417 470.452 198.788 470.841 199.255 471.163C199.721 471.485 200.273 471.734 200.875 471.895C201.478 472.055 202.118 472.123 202.758 472.095H218.428V497.925C218.28 497.925 218.132 498.021 217.984 498.094C212.673 500.36 204.09 502.493 196.296 504.12C195.77 504.237 195.318 504.488 195.022 504.828C194.726 505.168 194.606 505.574 194.684 505.973C194.761 506.372 195.031 506.738 195.445 507.004C195.858 507.27 196.388 507.418 196.938 507.423H249.307C249.833 507.396 250.33 507.239 250.716 506.976C251.103 506.714 251.354 506.362 251.429 505.98C251.504 505.597 251.398 505.208 251.129 504.876C250.859 504.544 250.443 504.29 249.949 504.156Z" fill="#E0E0E0"/>
<path d="M252.365 335.307H193.895C189.191 335.307 185.378 338.102 185.378 341.55V354.29C185.378 357.738 189.191 360.533 193.895 360.533H252.365C257.069 360.533 260.882 357.738 260.882 354.29V341.55C260.882 338.102 257.069 335.307 252.365 335.307Z" fill="#4CAF4F"/>
<path d="M193.353 360.546V362.74C193.353 364.547 196.033 366.018 199.322 366.018H247.005C250.294 366.018 252.974 364.547 252.974 362.74V360.546H193.353Z" fill="#4CAF4F"/>
<path opacity="0.3" d="M193.353 360.546V362.74C193.353 364.547 196.033 366.018 199.322 366.018H247.005C250.294 366.018 252.974 364.547 252.974 362.74V360.546H193.353Z" fill="white"/>
</svg>
